<svg width="29" height="27" viewBox="0 0 29 27" fill="none" xmlns="http://www.w3.org/2000/svg">
<path d="M11.8712 20.9027C9.96986 18.9291 8.99223 16.187 8.95862 13.4531C8.91992 10.2804 12.2856 8.68135 15.0261 8.55889C16.4223 8.49664 17.8673 8.83952 18.8562 9.87532C19.7473 10.8091 19.955 12.2592 20.0243 13.4909C20.1678 16.0472 19.735 18.8658 17.3857 20.3098C16.7726 20.6863 17.3184 21.6282 17.9488 21.2762C20.8603 19.6505 21.3614 16.0982 21.0895 13.0603C20.955 11.5601 20.5121 10.0845 19.4356 8.9926C18.3052 7.84659 16.5699 7.51902 15.0261 7.54759C11.8355 7.60678 8.38222 9.53141 7.99117 12.9419C7.80786 14.5369 8.23456 16.4279 8.86595 17.8892C9.42707 19.1883 10.3446 20.6261 11.7439 21.1221C11.8722 21.168 11.9577 20.9925 11.8712 20.9027Z" fill="white"/>
<path d="M11.5758 21.3353C13.4537 21.1251 15.3876 21.7058 17.2604 21.5945C17.5669 21.5762 17.8317 21.1537 17.5394 20.919C16.903 20.4087 15.8815 20.7373 15.1228 20.7506C14.412 20.7628 13.6951 20.8669 12.9873 20.921C12.4883 20.9588 12.0178 20.8914 11.5392 21.068C11.4058 21.1169 11.4129 21.3537 11.5748 21.3353H11.5758Z" fill="white"/>
<path d="M11.5228 21.1464C11.1979 21.4516 10.8904 22.0108 11.2957 22.4067C11.7591 22.8588 12.3619 22.7363 12.9638 22.6996C14.5779 22.6006 16.5699 23.216 18.0954 22.52C18.2828 22.4343 18.3561 22.1822 18.3072 21.9975C18.2288 21.6975 18.0974 21.5312 17.855 21.3485C17.521 21.0964 17.2043 21.5628 17.3418 21.8628C17.3611 21.9485 17.3805 22.0343 17.3998 22.121C17.5129 21.972 17.6259 21.823 17.739 21.675C16.8316 21.9883 15.8132 21.8353 14.8682 21.8608C14.2337 21.8781 13.5962 21.8373 12.9628 21.8791C12.7153 21.8955 11.2713 22.2241 11.7886 21.3536C11.8894 21.1832 11.6613 21.0168 11.5218 21.1474L11.5228 21.1464Z" fill="white"/>
<path d="M11.7276 22.5355C11.4465 22.6559 11.3345 22.8855 11.2001 23.1488C11.1431 23.26 11.1441 23.4151 11.2459 23.5039C12.4109 24.5203 14.1411 24.105 15.5302 23.9407C16.3357 23.8458 18.4081 24.3723 18.123 22.9232C18.0578 22.5926 17.5323 22.5161 17.3877 22.8273C17.2248 23.1773 16.6962 22.9794 16.3653 22.9865C15.8999 22.9967 15.4304 23.0845 14.9721 23.1569C13.8336 23.3376 12.6889 23.5366 11.5993 23.0426C11.6441 23.1529 11.6889 23.2631 11.7337 23.3733C11.751 23.2784 11.7806 22.7671 11.8508 22.6947C11.9374 22.6059 11.8284 22.4916 11.7276 22.5344V22.5355Z" fill="white"/>
<path d="M11.535 23.7764C11.5676 24.0529 11.2988 24.4325 11.2468 24.7101C11.2183 24.8591 11.2611 25.0336 11.4087 25.1081C12.7082 25.7663 14.3406 25.8388 15.7674 25.7622C16.4405 25.7265 16.9925 25.5979 17.5292 25.1765C17.9722 24.8275 18.0261 24.1325 17.5984 23.7794C17.353 23.5774 16.9487 23.6927 16.9497 24.0488C16.9528 25.6418 12.5717 24.7203 11.6807 24.4652C11.7662 24.5785 11.8528 24.6917 11.9383 24.805C11.9078 24.5121 12.1287 23.7345 11.6735 23.6733C11.6114 23.6651 11.5259 23.6998 11.536 23.7784L11.535 23.7764Z" fill="white"/>
<path d="M12.6085 25.3417C12.2632 25.26 12.139 25.5111 12.3284 25.7978C12.6604 26.2999 13.2215 26.5959 13.7602 26.8214C14.854 27.2796 16.6931 26.8755 16.462 25.356C16.4009 24.9539 15.853 24.9712 15.6687 25.2519C15.4721 25.5519 15.4548 25.8683 15.1167 26.057C14.8254 26.2193 14.4201 26.1744 14.1075 26.1254C13.7439 26.0693 13.3926 25.9325 13.0576 25.7856C12.9578 25.7417 12.2612 25.409 12.5748 25.4662C12.6563 25.4815 12.692 25.3601 12.6095 25.3407L12.6085 25.3417Z" fill="white"/>
<path d="M12.5148 15.2777C12.2296 17.087 12.5188 18.9096 12.4078 20.723C12.3875 21.0567 12.7184 21.2138 12.9975 21.173C13.1625 21.1495 13.2592 21.0832 13.3784 20.9709C13.6411 20.723 13.4578 20.1688 13.0647 20.2117C12.9547 20.2239 12.8549 20.2362 12.75 20.2729C12.9415 20.3821 13.1319 20.4903 13.3234 20.5995C13.0637 18.8412 12.8396 17.0666 12.6716 15.2991C12.6635 15.2164 12.53 15.1827 12.5148 15.2777Z" fill="white"/>
<path d="M12.3436 15.398C12.475 16.2011 12.9302 17.1328 13.7978 17.3165C14.9099 17.5512 15.1625 16.0378 15.9201 15.6357C15.6951 15.5061 15.47 15.3776 15.246 15.248C15.301 16.9603 15.2592 18.6737 15.2388 20.3871C15.2307 21.077 16.3183 21.077 16.3071 20.3871C16.2796 18.6727 16.2694 16.9593 16.1432 15.248C16.1187 14.9163 15.7786 14.6785 15.469 14.8602C14.9201 15.1816 14.6869 15.7368 14.3692 16.2603C13.6685 17.4165 12.8538 16.0256 12.5697 15.3378C12.5127 15.2 12.3212 15.25 12.3456 15.4L12.3436 15.398Z" fill="white"/>
<path d="M15.298 10.9242C15.9294 10.866 16.405 11.0201 16.7645 11.5661C17.0639 12.0202 17.0934 12.6039 17.4254 13.0305C17.6291 13.2928 17.9835 13.0448 18.0079 12.7886C18.07 12.1427 17.5007 11.362 17.0445 10.9558C16.5394 10.5058 15.8489 10.4476 15.2471 10.7344C15.1575 10.7773 15.1992 10.9334 15.298 10.9242Z" fill="white"/>
<path d="M14.1717 5.65443C14.5637 4.99826 14.5189 4.37576 14.4548 3.62979C14.3601 2.52154 14.6299 1.41329 14.5362 0.31015C14.5006 -0.108249 13.9374 -0.101106 13.8936 0.31015C13.7918 1.26328 13.802 2.29601 13.8733 3.25221C13.9252 3.95226 14.304 4.8758 13.9884 5.54626C13.9303 5.66872 14.1004 5.77383 14.1727 5.65443H14.1717Z" fill="white"/>
<path d="M21.893 7.47406C23.2932 7.12608 24.499 6.18009 25.8473 5.67699C25.6772 5.58004 25.5072 5.48412 25.3381 5.38717L25.3666 5.45758C25.4277 5.30655 25.4899 5.1545 25.551 5.00347C25.5204 5.0249 25.4899 5.04633 25.4593 5.06776C25.1151 5.30859 25.3167 5.88925 25.7536 5.76781C25.7893 5.75761 25.8239 5.74842 25.8595 5.73822C26.0255 5.6923 26.163 5.528 26.1538 5.35043C26.1528 5.32594 26.1518 5.30145 26.1508 5.27696C26.1396 5.03306 25.8901 4.77182 25.6263 4.87693C24.2515 5.42595 22.9897 6.39337 21.8044 7.26691C21.7035 7.3414 21.7606 7.50774 21.8919 7.47508L21.893 7.47406Z" fill="white"/>
<path d="M8.43416 7.09839C8.14393 6.49121 7.60928 6.08607 7.06445 5.71564C6.69784 5.46664 6.30984 5.24928 5.92591 5.02885C5.62447 4.85639 5.30776 4.60127 4.9605 4.5482C4.64786 4.50024 4.434 4.82577 4.65295 5.07885C5.05113 5.54011 5.91267 5.73911 6.45445 6.00137C7.10111 6.31568 7.77731 6.6851 8.24169 7.24841C8.3364 7.36372 8.49221 7.21677 8.4362 7.09839H8.43416Z" fill="white"/>
<path d="M4.41558 13.148C3.1477 12.9021 1.41953 13.0643 0.218865 13.5501C-0.153859 13.7011 -0.0204525 14.246 0.386896 14.1613C1.058 14.0225 1.70874 13.8133 2.38698 13.696C3.06012 13.5786 3.74345 13.5552 4.41558 13.4388C4.5612 13.4133 4.55815 13.1755 4.41558 13.148Z" fill="white"/>
<path d="M6.16209 19.483C5.6529 19.6493 5.2201 19.9749 4.80867 20.3096C4.34939 20.6831 3.86057 21.0872 3.46238 21.525C3.24445 21.7648 3.54284 22.2118 3.82493 21.9964C4.23533 21.6832 4.56834 21.2699 4.92782 20.9004C5.34536 20.4718 5.80362 20.1177 6.27615 19.7544C6.39937 19.6595 6.33521 19.4269 6.16209 19.483Z" fill="white"/>
<path d="M24.2668 12.9243C24.2383 12.9345 24.2098 12.9437 24.1813 12.9539C24.1416 13.0998 24.1029 13.2458 24.0631 13.3907C25.5907 13.4009 27.0236 13.8499 28.5318 13.9744C28.8301 13.9989 28.8719 13.5458 28.6 13.4662C27.1641 13.0458 25.497 12.7233 24.001 12.9294C23.7016 12.9702 23.8432 13.4988 24.1253 13.3815C24.332 13.2958 24.3554 13.2539 24.4165 13.0386C24.4389 12.958 24.3422 12.8702 24.2668 12.9233V12.9243Z" fill="white"/>
<path d="M22.2157 20.0443C22.8461 20.7934 23.4653 21.6118 24.3105 22.1312C24.6394 22.3343 24.8981 21.8465 24.6058 21.6261C23.8502 21.0567 23.172 20.426 22.4876 19.7729C22.3064 19.5994 22.0589 19.8576 22.2157 20.0454V20.0443Z" fill="white"/>
</svg>
